P3
# CREATOR: GIMP PNM Filter Version 1.1
4 4
255
255
0
0
0
0
0
0
0
0
0
255
0
0
0
0
255
255
255
32
32
32
0
0
0
0
0
0
100
100
100
50
50
50
0
0
0
0
255
255
0
0
0
0
0
0
0
0
255
